<svg width="87" height="87" viewBox="0 0 87 87" fill="none" xmlns="http://www.w3.org/2000/svg">
<g clip-path="url(#clip0_657_48)">
<rect width="87" height="87" rx="12" fill="url(#paint0_linear_657_48)" style=""/>
<g filter="url(#filter0_d_657_48)">
<path d="M46.0723 31.4313L33.0044 32.829L44.926 28.8688L68.7692 10L46.0723 31.4313Z" fill="white" style="fill:white;fill-opacity:1;"/>
<path d="M50.6575 39.1186L59.828 23.0451L48.3649 34.9255L11.4538 38.4197L50.6575 39.1186Z" fill="white" style="fill:white;fill-opacity:1;"/>
<path d="M40.6575 50.5648L48.4329 61.3279L39.0573 52.8625L11 41.4508L40.6575 50.5648Z" fill="white" style="fill:white;fill-opacity:1;"/>
<path d="M44.8802 42.666L26.5953 42.7211L42.4718 46.7916L64.0485 77.4211L44.8802 42.666Z" fill="white" style="fill:white;fill-opacity:1;"/>
<path d="M59.7169 45.3849L65.3932 33.3435L62.4654 45.7356L65.7872 76.2573L59.7169 45.3849Z" fill="white" style="fill:white;fill-opacity:1;"/>
<path d="M50.8704 45.3246L59.538 61.6836L55.5865 45.5378L72 11.7639L50.8704 45.3246Z" fill="white" style="fill:white;fill-opacity:1;"/>
</g>
</g>
<defs>
<filter id="filter0_d_657_48" x="-1.00003" y="-2" width="85" height="91.4211" filterUnits="userSpaceOnUse" color-interpolation-filters="sRGB">
<feFlood flood-opacity="0" result="BackgroundImageFix"/>
<feColorMatrix in="SourceAlpha" type="matrix" values="0 0 0 0 0 0 0 0 0 0 0 0 0 0 0 0 0 0 127 0" result="hardAlpha"/>
<feOffset/>
<feGaussianBlur stdDeviation="6"/>
<feComposite in2="hardAlpha" operator="out"/>
<feColorMatrix type="matrix" values="0 0 0 0 0 0 0 0 0 0 0 0 0 0 0 0 0 0 0.52 0"/>
<feBlend mode="normal" in2="BackgroundImageFix" result="effect1_dropShadow_657_48"/>
<feBlend mode="normal" in="SourceGraphic" in2="effect1_dropShadow_657_48" result="shape"/>
</filter>
<linearGradient id="paint0_linear_657_48" x1="-0.227751" y1="0.000595967" x2="87.3404" y2="87.1115" gradientUnits="userSpaceOnUse">
<stop stop-color="#3F8CFF" style="stop-color:#3F8CFF;stop-color:color(display-p3 0.2465 0.5479 1.0000);stop-opacity:1;"/>
<stop offset="1" stop-color="#265499" style="stop-color:#265499;stop-color:color(display-p3 0.1479 0.3288 0.6000);stop-opacity:1;"/>
</linearGradient>
<clipPath id="clip0_657_48">
<rect width="87" height="87" rx="12" fill="white" style="fill:white;fill-opacity:1;"/>
</clipPath>
</defs>
</svg>
